<svg xmlns="http://www.w3.org/2000/svg" xmlns:xlink="http://www.w3.org/1999/xlink" width="400" zoomAndPan="magnify" viewBox="50 150 280 80" height="100" preserveAspectRatio="xMidYMid meet" version="1.0"><defs><g/></defs><g fill="#3d3d3d" fill-opacity="1"><g transform="translate(59.309996, 197.624987)"><g><path d="M 9.1875 0.3125 C 8.113281 0.3125 7.117188 0.144531 6.203125 -0.1875 C 5.296875 -0.519531 4.515625 -1.046875 3.859375 -1.765625 C 3.210938 -2.484375 2.707031 -3.40625 2.34375 -4.53125 C 1.976562 -5.65625 1.796875 -7.015625 1.796875 -8.609375 C 1.796875 -10.335938 1.976562 -11.785156 2.34375 -12.953125 C 2.707031 -14.128906 3.210938 -15.070312 3.859375 -15.78125 C 4.503906 -16.488281 5.269531 -16.988281 6.15625 -17.28125 C 7.039062 -17.570312 7.992188 -17.71875 9.015625 -17.71875 C 9.691406 -17.71875 10.363281 -17.648438 11.03125 -17.515625 C 11.707031 -17.390625 12.316406 -17.1875 12.859375 -16.90625 C 13.398438 -16.632812 13.835938 -16.289062 14.171875 -15.875 C 14.515625 -15.457031 14.6875 -14.96875 14.6875 -14.40625 C 14.6875 -13.65625 14.441406 -13.125 13.953125 -12.8125 C 13.460938 -12.507812 12.738281 -12.359375 11.78125 -12.359375 C 11.78125 -12.867188 11.738281 -13.347656 11.65625 -13.796875 C 11.570312 -14.253906 11.425781 -14.65625 11.21875 -15 C 11.007812 -15.34375 10.726562 -15.613281 10.375 -15.8125 C 10.019531 -16.007812 9.566406 -16.109375 9.015625 -16.109375 C 8.390625 -16.109375 7.828125 -15.988281 7.328125 -15.75 C 6.828125 -15.519531 6.394531 -15.117188 6.03125 -14.546875 C 5.675781 -13.984375 5.40625 -13.21875 5.21875 -12.25 C 5.03125 -11.289062 4.9375 -10.085938 4.9375 -8.640625 C 4.9375 -6.335938 5.316406 -4.617188 6.078125 -3.484375 C 6.847656 -2.359375 8.101562 -1.796875 9.84375 -1.796875 C 10.84375 -1.796875 11.71875 -2.003906 12.46875 -2.421875 C 13.226562 -2.847656 13.789062 -3.394531 14.15625 -4.0625 C 14.3125 -3.9375 14.441406 -3.765625 14.546875 -3.546875 C 14.660156 -3.335938 14.71875 -3.085938 14.71875 -2.796875 C 14.71875 -2.421875 14.597656 -2.046875 14.359375 -1.671875 C 14.128906 -1.304688 13.785156 -0.972656 13.328125 -0.671875 C 12.867188 -0.378906 12.296875 -0.144531 11.609375 0.03125 C 10.921875 0.21875 10.113281 0.3125 9.1875 0.3125 Z M 9.1875 0.3125 "/></g></g></g><g fill="#3d3d3d" fill-opacity="1"><g transform="translate(80.294911, 197.624987)"><g><path d="M 9.328125 -1.359375 L 9.328125 0 L 0.59375 0 L 0.59375 -1.359375 L 0.84375 -1.359375 C 1.207031 -1.359375 1.550781 -1.382812 1.875 -1.4375 C 2.195312 -1.488281 2.476562 -1.597656 2.71875 -1.765625 C 2.957031 -1.929688 3.144531 -2.164062 3.28125 -2.46875 C 3.425781 -2.78125 3.5 -3.1875 3.5 -3.6875 L 3.5 -21.09375 C 3.5 -21.570312 3.425781 -21.957031 3.28125 -22.25 C 3.144531 -22.539062 2.953125 -22.765625 2.703125 -22.921875 C 2.460938 -23.078125 2.179688 -23.179688 1.859375 -23.234375 C 1.535156 -23.285156 1.195312 -23.3125 0.84375 -23.3125 L 0.59375 -23.3125 L 0.59375 -24.671875 L 6.5625 -24.671875 L 6.5625 -17.53125 C 6.5625 -17.238281 6.554688 -16.929688 6.546875 -16.609375 C 6.535156 -16.285156 6.519531 -15.988281 6.5 -15.71875 C 6.476562 -15.394531 6.457031 -15.082031 6.4375 -14.78125 L 6.59375 -14.78125 C 7.5625 -16.738281 9.15625 -17.71875 11.375 -17.71875 C 12.289062 -17.71875 13.101562 -17.59375 13.8125 -17.34375 C 14.53125 -17.101562 15.128906 -16.722656 15.609375 -16.203125 C 16.097656 -15.691406 16.46875 -15.035156 16.71875 -14.234375 C 16.976562 -13.429688 17.109375 -12.476562 17.109375 -11.375 L 17.109375 -3.6875 C 17.109375 -3.1875 17.171875 -2.78125 17.296875 -2.46875 C 17.421875 -2.164062 17.59375 -1.929688 17.8125 -1.765625 C 18.039062 -1.597656 18.304688 -1.488281 18.609375 -1.4375 C 18.921875 -1.382812 19.253906 -1.359375 19.609375 -1.359375 L 19.703125 -1.359375 L 19.703125 0 L 14.0625 0 L 14.0625 -11.203125 C 14.0625 -11.910156 14 -12.539062 13.875 -13.09375 C 13.75 -13.644531 13.546875 -14.109375 13.265625 -14.484375 C 12.984375 -14.867188 12.613281 -15.15625 12.15625 -15.34375 C 11.707031 -15.539062 11.15625 -15.640625 10.5 -15.640625 C 9.820312 -15.640625 9.234375 -15.515625 8.734375 -15.265625 C 8.242188 -15.023438 7.835938 -14.671875 7.515625 -14.203125 C 7.203125 -13.742188 6.960938 -13.191406 6.796875 -12.546875 C 6.640625 -11.898438 6.5625 -11.179688 6.5625 -10.390625 L 6.5625 -3.53125 C 6.5625 -3.0625 6.628906 -2.679688 6.765625 -2.390625 C 6.910156 -2.097656 7.101562 -1.875 7.34375 -1.71875 C 7.59375 -1.570312 7.878906 -1.472656 8.203125 -1.421875 C 8.523438 -1.378906 8.867188 -1.359375 9.234375 -1.359375 Z M 9.328125 -1.359375 "/></g></g></g><g fill="#3d3d3d" fill-opacity="1"><g transform="translate(105.909717, 197.624987)"><g><path d="M 8.921875 -15.984375 C 7.722656 -15.984375 6.796875 -15.492188 6.140625 -14.515625 C 5.492188 -13.535156 5.113281 -12.101562 5 -10.21875 L 12.46875 -10.21875 C 12.46875 -11.082031 12.398438 -11.867188 12.265625 -12.578125 C 12.140625 -13.285156 11.9375 -13.890625 11.65625 -14.390625 C 11.382812 -14.898438 11.023438 -15.289062 10.578125 -15.5625 C 10.128906 -15.84375 9.578125 -15.984375 8.921875 -15.984375 Z M 9.328125 0.3125 C 8.148438 0.3125 7.09375 0.113281 6.15625 -0.28125 C 5.21875 -0.675781 4.425781 -1.253906 3.78125 -2.015625 C 3.144531 -2.773438 2.65625 -3.707031 2.3125 -4.8125 C 1.96875 -5.914062 1.796875 -7.171875 1.796875 -8.578125 C 1.796875 -11.609375 2.414062 -13.890625 3.65625 -15.421875 C 4.90625 -16.953125 6.679688 -17.71875 8.984375 -17.71875 C 10.035156 -17.71875 10.976562 -17.550781 11.8125 -17.21875 C 12.644531 -16.894531 13.351562 -16.410156 13.9375 -15.765625 C 14.519531 -15.117188 14.96875 -14.3125 15.28125 -13.34375 C 15.59375 -12.375 15.75 -11.25 15.75 -9.96875 L 15.75 -8.484375 L 4.9375 -8.484375 C 4.957031 -7.296875 5.070312 -6.273438 5.28125 -5.421875 C 5.5 -4.578125 5.8125 -3.878906 6.21875 -3.328125 C 6.625 -2.773438 7.125 -2.367188 7.71875 -2.109375 C 8.3125 -1.859375 8.992188 -1.734375 9.765625 -1.734375 C 10.328125 -1.734375 10.847656 -1.796875 11.328125 -1.921875 C 11.804688 -2.046875 12.238281 -2.210938 12.625 -2.421875 C 13.019531 -2.640625 13.367188 -2.878906 13.671875 -3.140625 C 13.972656 -3.410156 14.21875 -3.695312 14.40625 -4 C 14.5625 -3.9375 14.703125 -3.800781 14.828125 -3.59375 C 14.960938 -3.394531 15.03125 -3.160156 15.03125 -2.890625 C 15.03125 -2.554688 14.910156 -2.203125 14.671875 -1.828125 C 14.441406 -1.453125 14.085938 -1.101562 13.609375 -0.78125 C 13.140625 -0.46875 12.546875 -0.207031 11.828125 0 C 11.117188 0.207031 10.285156 0.3125 9.328125 0.3125 Z M 9.328125 0.3125 "/></g></g></g><g fill="#3d3d3d" fill-opacity="1"><g transform="translate(128.289942, 197.624987)"><g><path d="M 8.921875 -15.984375 C 7.722656 -15.984375 6.796875 -15.492188 6.140625 -14.515625 C 5.492188 -13.535156 5.113281 -12.101562 5 -10.21875 L 12.46875 -10.21875 C 12.46875 -11.082031 12.398438 -11.867188 12.265625 -12.578125 C 12.140625 -13.285156 11.9375 -13.890625 11.65625 -14.390625 C 11.382812 -14.898438 11.023438 -15.289062 10.578125 -15.5625 C 10.128906 -15.84375 9.578125 -15.984375 8.921875 -15.984375 Z M 9.328125 0.3125 C 8.148438 0.3125 7.09375 0.113281 6.15625 -0.28125 C 5.21875 -0.675781 4.425781 -1.253906 3.78125 -2.015625 C 3.144531 -2.773438 2.65625 -3.707031 2.3125 -4.8125 C 1.96875 -5.914062 1.796875 -7.171875 1.796875 -8.578125 C 1.796875 -11.609375 2.414062 -13.890625 3.65625 -15.421875 C 4.90625 -16.953125 6.679688 -17.71875 8.984375 -17.71875 C 10.035156 -17.71875 10.976562 -17.550781 11.8125 -17.21875 C 12.644531 -16.894531 13.351562 -16.410156 13.9375 -15.765625 C 14.519531 -15.117188 14.96875 -14.3125 15.28125 -13.34375 C 15.59375 -12.375 15.75 -11.25 15.75 -9.96875 L 15.75 -8.484375 L 4.9375 -8.484375 C 4.957031 -7.296875 5.070312 -6.273438 5.28125 -5.421875 C 5.5 -4.578125 5.8125 -3.878906 6.21875 -3.328125 C 6.625 -2.773438 7.125 -2.367188 7.71875 -2.109375 C 8.3125 -1.859375 8.992188 -1.734375 9.765625 -1.734375 C 10.328125 -1.734375 10.847656 -1.796875 11.328125 -1.921875 C 11.804688 -2.046875 12.238281 -2.210938 12.625 -2.421875 C 13.019531 -2.640625 13.367188 -2.878906 13.671875 -3.140625 C 13.972656 -3.410156 14.21875 -3.695312 14.40625 -4 C 14.5625 -3.9375 14.703125 -3.800781 14.828125 -3.59375 C 14.960938 -3.394531 15.03125 -3.160156 15.03125 -2.890625 C 15.03125 -2.554688 14.910156 -2.203125 14.671875 -1.828125 C 14.441406 -1.453125 14.085938 -1.101562 13.609375 -0.78125 C 13.140625 -0.46875 12.546875 -0.207031 11.828125 0 C 11.117188 0.207031 10.285156 0.3125 9.328125 0.3125 Z M 9.328125 0.3125 "/></g></g></g><g fill="#3d3d3d" fill-opacity="1"><g transform="translate(150.670167, 197.624987)"><g><path d="M 9.328125 -1.359375 L 9.328125 0 L 0.59375 0 L 0.59375 -1.359375 L 0.84375 -1.359375 C 1.207031 -1.359375 1.550781 -1.382812 1.875 -1.4375 C 2.195312 -1.488281 2.476562 -1.597656 2.71875 -1.765625 C 2.957031 -1.929688 3.144531 -2.164062 3.28125 -2.46875 C 3.425781 -2.78125 3.5 -3.1875 3.5 -3.6875 L 3.5 -21.09375 C 3.5 -21.570312 3.425781 -21.957031 3.28125 -22.25 C 3.144531 -22.539062 2.953125 -22.765625 2.703125 -22.921875 C 2.460938 -23.078125 2.179688 -23.179688 1.859375 -23.234375 C 1.535156 -23.285156 1.195312 -23.3125 0.84375 -23.3125 L 0.59375 -23.3125 L 0.59375 -24.671875 L 6.5625 -24.671875 L 6.5625 -17.53125 C 6.5625 -17.238281 6.554688 -16.929688 6.546875 -16.609375 C 6.535156 -16.285156 6.519531 -15.988281 6.5 -15.71875 C 6.476562 -15.394531 6.457031 -15.082031 6.4375 -14.78125 L 6.59375 -14.78125 C 7.5625 -16.738281 9.15625 -17.71875 11.375 -17.71875 C 12.289062 -17.71875 13.101562 -17.59375 13.8125 -17.34375 C 14.53125 -17.101562 15.128906 -16.722656 15.609375 -16.203125 C 16.097656 -15.691406 16.46875 -15.035156 16.71875 -14.234375 C 16.976562 -13.429688 17.109375 -12.476562 17.109375 -11.375 L 17.109375 -3.6875 C 17.109375 -3.1875 17.171875 -2.78125 17.296875 -2.46875 C 17.421875 -2.164062 17.59375 -1.929688 17.8125 -1.765625 C 18.039062 -1.597656 18.304688 -1.488281 18.609375 -1.4375 C 18.921875 -1.382812 19.253906 -1.359375 19.609375 -1.359375 L 19.703125 -1.359375 L 19.703125 0 L 14.0625 0 L 14.0625 -11.203125 C 14.0625 -11.910156 14 -12.539062 13.875 -13.09375 C 13.75 -13.644531 13.546875 -14.109375 13.265625 -14.484375 C 12.984375 -14.867188 12.613281 -15.15625 12.15625 -15.34375 C 11.707031 -15.539062 11.15625 -15.640625 10.5 -15.640625 C 9.820312 -15.640625 9.234375 -15.515625 8.734375 -15.265625 C 8.242188 -15.023438 7.835938 -14.671875 7.515625 -14.203125 C 7.203125 -13.742188 6.960938 -13.191406 6.796875 -12.546875 C 6.640625 -11.898438 6.5625 -11.179688 6.5625 -10.390625 L 6.5625 -3.53125 C 6.5625 -3.0625 6.628906 -2.679688 6.765625 -2.390625 C 6.910156 -2.097656 7.101562 -1.875 7.34375 -1.71875 C 7.59375 -1.570312 7.878906 -1.472656 8.203125 -1.421875 C 8.523438 -1.378906 8.867188 -1.359375 9.234375 -1.359375 Z M 9.328125 -1.359375 "/></g></g></g><g fill="#3d3d3d" fill-opacity="1"><g transform="translate(176.284972, 197.624987)"><g><path d="M 15.453125 -17.3125 L 18.703125 -7.6875 C 18.828125 -7.300781 18.960938 -6.878906 19.109375 -6.421875 C 19.253906 -5.972656 19.390625 -5.53125 19.515625 -5.09375 C 19.640625 -4.65625 19.753906 -4.238281 19.859375 -3.84375 C 19.972656 -3.457031 20.054688 -3.128906 20.109375 -2.859375 L 20.203125 -2.859375 C 20.296875 -3.390625 20.445312 -4.050781 20.65625 -4.84375 C 20.863281 -5.632812 21.132812 -6.550781 21.46875 -7.59375 L 23.078125 -12.828125 C 23.160156 -13.097656 23.234375 -13.390625 23.296875 -13.703125 C 23.359375 -14.015625 23.390625 -14.257812 23.390625 -14.4375 C 23.390625 -15 23.210938 -15.40625 22.859375 -15.65625 C 22.503906 -15.914062 21.960938 -16.046875 21.234375 -16.046875 L 21 -16.046875 L 21 -17.40625 L 27.953125 -17.40625 L 27.953125 -16.046875 L 27.53125 -16.046875 C 27.21875 -16.046875 26.941406 -16.015625 26.703125 -15.953125 C 26.472656 -15.890625 26.265625 -15.765625 26.078125 -15.578125 C 25.898438 -15.390625 25.726562 -15.128906 25.5625 -14.796875 C 25.40625 -14.472656 25.25 -14.039062 25.09375 -13.5 L 20.90625 0 L 18.3125 0 L 14.4375 -11.4375 L 13.859375 -13.578125 L 9.265625 0 L 6.6875 0 L 2.4375 -14.3125 C 2.3125 -14.65625 2.179688 -14.9375 2.046875 -15.15625 C 1.910156 -15.375 1.75 -15.550781 1.5625 -15.6875 C 1.382812 -15.820312 1.179688 -15.914062 0.953125 -15.96875 C 0.722656 -16.019531 0.445312 -16.046875 0.125 -16.046875 L 0.03125 -16.046875 L 0.03125 -17.40625 L 8.046875 -17.40625 L 8.046875 -16.046875 L 7.625 -16.046875 C 6.976562 -16.046875 6.488281 -15.945312 6.15625 -15.75 C 5.832031 -15.5625 5.671875 -15.207031 5.671875 -14.6875 C 5.671875 -14.5 5.695312 -14.28125 5.75 -14.03125 C 5.8125 -13.78125 5.875 -13.53125 5.9375 -13.28125 L 7.46875 -7.828125 C 7.570312 -7.441406 7.679688 -7.015625 7.796875 -6.546875 C 7.910156 -6.078125 8.019531 -5.613281 8.125 -5.15625 C 8.226562 -4.695312 8.320312 -4.265625 8.40625 -3.859375 C 8.488281 -3.460938 8.554688 -3.128906 8.609375 -2.859375 L 8.703125 -2.859375 C 8.753906 -3.128906 8.820312 -3.445312 8.90625 -3.8125 C 9 -4.175781 9.109375 -4.566406 9.234375 -4.984375 C 9.359375 -5.398438 9.488281 -5.820312 9.625 -6.25 C 9.757812 -6.6875 9.894531 -7.101562 10.03125 -7.5 L 13.40625 -17.3125 Z M 15.453125 -17.3125 "/></g></g></g><g fill="#3d3d3d" fill-opacity="1"><g transform="translate(209.272725, 197.624987)"><g><path d="M 4.765625 -4.703125 C 4.765625 -3.691406 4.976562 -2.9375 5.40625 -2.4375 C 5.84375 -1.9375 6.507812 -1.6875 7.40625 -1.6875 C 8.0625 -1.6875 8.65625 -1.789062 9.1875 -2 C 9.71875 -2.207031 10.171875 -2.503906 10.546875 -2.890625 C 10.921875 -3.285156 11.207031 -3.765625 11.40625 -4.328125 C 11.613281 -4.890625 11.71875 -5.515625 11.71875 -6.203125 L 11.71875 -8.828125 L 9.640625 -8.734375 C 8.722656 -8.691406 7.953125 -8.578125 7.328125 -8.390625 C 6.710938 -8.210938 6.210938 -7.957031 5.828125 -7.625 C 5.453125 -7.289062 5.179688 -6.878906 5.015625 -6.390625 C 4.847656 -5.898438 4.765625 -5.335938 4.765625 -4.703125 Z M 8.703125 -16.109375 C 8.078125 -16.109375 7.570312 -16.019531 7.1875 -15.84375 C 6.800781 -15.664062 6.5 -15.421875 6.28125 -15.109375 C 6.070312 -14.796875 5.925781 -14.421875 5.84375 -13.984375 C 5.769531 -13.546875 5.734375 -13.078125 5.734375 -12.578125 C 4.835938 -12.578125 4.15625 -12.726562 3.6875 -13.03125 C 3.21875 -13.332031 2.984375 -13.863281 2.984375 -14.625 C 2.984375 -15.175781 3.132812 -15.644531 3.4375 -16.03125 C 3.75 -16.425781 4.171875 -16.75 4.703125 -17 C 5.234375 -17.25 5.851562 -17.429688 6.5625 -17.546875 C 7.269531 -17.660156 8.023438 -17.71875 8.828125 -17.71875 C 9.828125 -17.71875 10.695312 -17.617188 11.4375 -17.421875 C 12.175781 -17.234375 12.789062 -16.914062 13.28125 -16.46875 C 13.78125 -16.03125 14.15625 -15.453125 14.40625 -14.734375 C 14.65625 -14.023438 14.78125 -13.148438 14.78125 -12.109375 L 14.78125 -3.6875 C 14.78125 -3.238281 14.816406 -2.863281 14.890625 -2.5625 C 14.960938 -2.269531 15.078125 -2.03125 15.234375 -1.84375 C 15.390625 -1.664062 15.597656 -1.539062 15.859375 -1.46875 C 16.117188 -1.394531 16.429688 -1.359375 16.796875 -1.359375 L 16.890625 -1.359375 L 16.890625 0 L 12.5 0 L 11.984375 -2.796875 L 11.71875 -2.796875 C 11.375 -2.335938 11.039062 -1.914062 10.71875 -1.53125 C 10.40625 -1.15625 10.054688 -0.828125 9.671875 -0.546875 C 9.296875 -0.273438 8.867188 -0.0664062 8.390625 0.078125 C 7.910156 0.234375 7.332031 0.3125 6.65625 0.3125 C 5.9375 0.3125 5.265625 0.207031 4.640625 0 C 4.023438 -0.195312 3.492188 -0.507812 3.046875 -0.9375 C 2.597656 -1.363281 2.242188 -1.898438 1.984375 -2.546875 C 1.734375 -3.203125 1.609375 -3.972656 1.609375 -4.859375 C 1.609375 -6.585938 2.222656 -7.867188 3.453125 -8.703125 C 4.679688 -9.535156 6.535156 -9.988281 9.015625 -10.0625 L 11.71875 -10.15625 L 11.71875 -12.109375 C 11.71875 -12.691406 11.6875 -13.226562 11.625 -13.71875 C 11.5625 -14.207031 11.421875 -14.628906 11.203125 -14.984375 C 10.992188 -15.335938 10.691406 -15.613281 10.296875 -15.8125 C 9.898438 -16.007812 9.367188 -16.109375 8.703125 -16.109375 Z M 8.703125 -16.109375 "/></g></g></g><path fill="#3d3d3d" d="M 232.546875 199.875 L 298.207031 199.875 L 298.207031 202.875 L 232.546875 202.875 Z M 232.546875 199.875 " fill-opacity="1" fill-rule="nonzero"/><g fill="#3d3d3d" fill-opacity="1"><g transform="translate(232.548266, 197.624987)"><g><path d="M 8.609375 -1.390625 C 8.992188 -1.390625 9.347656 -1.410156 9.671875 -1.453125 C 10.003906 -1.492188 10.34375 -1.546875 10.6875 -1.609375 L 10.6875 -0.1875 C 10.550781 -0.125 10.367188 -0.0625 10.140625 0 C 9.921875 0.0625 9.679688 0.113281 9.421875 0.15625 C 9.160156 0.207031 8.890625 0.242188 8.609375 0.265625 C 8.328125 0.296875 8.054688 0.3125 7.796875 0.3125 C 6.972656 0.3125 6.265625 0.222656 5.671875 0.046875 C 5.078125 -0.117188 4.585938 -0.394531 4.203125 -0.78125 C 3.828125 -1.175781 3.546875 -1.695312 3.359375 -2.34375 C 3.179688 -2.988281 3.09375 -3.773438 3.09375 -4.703125 L 3.09375 -15.546875 L 0.625 -15.546875 L 0.625 -16.859375 C 1.007812 -16.859375 1.4375 -16.9375 1.90625 -17.09375 C 2.375 -17.25 2.789062 -17.515625 3.15625 -17.890625 C 3.519531 -18.285156 3.816406 -18.757812 4.046875 -19.3125 C 4.273438 -19.875 4.472656 -20.570312 4.640625 -21.40625 L 6.140625 -21.40625 L 6.140625 -17.40625 L 10.390625 -17.40625 L 10.390625 -15.546875 L 6.140625 -15.546875 L 6.140625 -4.609375 C 6.140625 -3.503906 6.363281 -2.691406 6.8125 -2.171875 C 7.257812 -1.648438 7.859375 -1.390625 8.609375 -1.390625 Z M 8.609375 -1.390625 "/></g></g></g><g fill="#3d3d3d" fill-opacity="1"><g transform="translate(248.982576, 197.624987)"><g><path d="M 4.765625 -4.703125 C 4.765625 -3.691406 4.976562 -2.9375 5.40625 -2.4375 C 5.84375 -1.9375 6.507812 -1.6875 7.40625 -1.6875 C 8.0625 -1.6875 8.65625 -1.789062 9.1875 -2 C 9.71875 -2.207031 10.171875 -2.503906 10.546875 -2.890625 C 10.921875 -3.285156 11.207031 -3.765625 11.40625 -4.328125 C 11.613281 -4.890625 11.71875 -5.515625 11.71875 -6.203125 L 11.71875 -8.828125 L 9.640625 -8.734375 C 8.722656 -8.691406 7.953125 -8.578125 7.328125 -8.390625 C 6.710938 -8.210938 6.210938 -7.957031 5.828125 -7.625 C 5.453125 -7.289062 5.179688 -6.878906 5.015625 -6.390625 C 4.847656 -5.898438 4.765625 -5.335938 4.765625 -4.703125 Z M 8.703125 -16.109375 C 8.078125 -16.109375 7.570312 -16.019531 7.1875 -15.84375 C 6.800781 -15.664062 6.5 -15.421875 6.28125 -15.109375 C 6.070312 -14.796875 5.925781 -14.421875 5.84375 -13.984375 C 5.769531 -13.546875 5.734375 -13.078125 5.734375 -12.578125 C 4.835938 -12.578125 4.15625 -12.726562 3.6875 -13.03125 C 3.21875 -13.332031 2.984375 -13.863281 2.984375 -14.625 C 2.984375 -15.175781 3.132812 -15.644531 3.4375 -16.03125 C 3.75 -16.425781 4.171875 -16.75 4.703125 -17 C 5.234375 -17.25 5.851562 -17.429688 6.5625 -17.546875 C 7.269531 -17.660156 8.023438 -17.71875 8.828125 -17.71875 C 9.828125 -17.71875 10.695312 -17.617188 11.4375 -17.421875 C 12.175781 -17.234375 12.789062 -16.914062 13.28125 -16.46875 C 13.78125 -16.03125 14.15625 -15.453125 14.40625 -14.734375 C 14.65625 -14.023438 14.78125 -13.148438 14.78125 -12.109375 L 14.78125 -3.6875 C 14.78125 -3.238281 14.816406 -2.863281 14.890625 -2.5625 C 14.960938 -2.269531 15.078125 -2.03125 15.234375 -1.84375 C 15.390625 -1.664062 15.597656 -1.539062 15.859375 -1.46875 C 16.117188 -1.394531 16.429688 -1.359375 16.796875 -1.359375 L 16.890625 -1.359375 L 16.890625 0 L 12.5 0 L 11.984375 -2.796875 L 11.71875 -2.796875 C 11.375 -2.335938 11.039062 -1.914062 10.71875 -1.53125 C 10.40625 -1.15625 10.054688 -0.828125 9.671875 -0.546875 C 9.296875 -0.273438 8.867188 -0.0664062 8.390625 0.078125 C 7.910156 0.234375 7.332031 0.3125 6.65625 0.3125 C 5.9375 0.3125 5.265625 0.207031 4.640625 0 C 4.023438 -0.195312 3.492188 -0.507812 3.046875 -0.9375 C 2.597656 -1.363281 2.242188 -1.898438 1.984375 -2.546875 C 1.734375 -3.203125 1.609375 -3.972656 1.609375 -4.859375 C 1.609375 -6.585938 2.222656 -7.867188 3.453125 -8.703125 C 4.679688 -9.535156 6.535156 -9.988281 9.015625 -10.0625 L 11.71875 -10.15625 L 11.71875 -12.109375 C 11.71875 -12.691406 11.6875 -13.226562 11.625 -13.71875 C 11.5625 -14.207031 11.421875 -14.628906 11.203125 -14.984375 C 10.992188 -15.335938 10.691406 -15.613281 10.296875 -15.8125 C 9.898438 -16.007812 9.367188 -16.109375 8.703125 -16.109375 Z M 8.703125 -16.109375 "/></g></g></g><g fill="#3d3d3d" fill-opacity="1"><g transform="translate(272.266586, 197.624987)"><g><path d="M 9.640625 -1.359375 L 9.640625 0 L 0.90625 0 L 0.90625 -1.359375 L 1.171875 -1.359375 C 1.546875 -1.359375 1.890625 -1.382812 2.203125 -1.4375 C 2.523438 -1.488281 2.804688 -1.597656 3.046875 -1.765625 C 3.285156 -1.929688 3.476562 -2.164062 3.625 -2.46875 C 3.769531 -2.78125 3.84375 -3.1875 3.84375 -3.6875 L 3.84375 -13.828125 C 3.84375 -14.296875 3.769531 -14.675781 3.625 -14.96875 C 3.476562 -15.257812 3.28125 -15.484375 3.03125 -15.640625 C 2.789062 -15.804688 2.507812 -15.914062 2.1875 -15.96875 C 1.875 -16.019531 1.535156 -16.046875 1.171875 -16.046875 L 1.078125 -16.046875 L 1.078125 -17.40625 L 6.328125 -17.40625 L 6.75 -14.78125 L 6.90625 -14.78125 C 7.25 -15.375 7.609375 -15.863281 7.984375 -16.25 C 8.359375 -16.644531 8.753906 -16.945312 9.171875 -17.15625 C 9.585938 -17.375 10.03125 -17.519531 10.5 -17.59375 C 10.96875 -17.675781 11.460938 -17.71875 11.984375 -17.71875 C 12.835938 -17.71875 13.597656 -17.59375 14.265625 -17.34375 C 14.941406 -17.101562 15.515625 -16.722656 15.984375 -16.203125 C 16.453125 -15.691406 16.8125 -15.035156 17.0625 -14.234375 C 17.3125 -13.429688 17.4375 -12.476562 17.4375 -11.375 L 17.4375 -3.6875 C 17.4375 -3.1875 17.492188 -2.78125 17.609375 -2.46875 C 17.734375 -2.164062 17.90625 -1.929688 18.125 -1.765625 C 18.351562 -1.597656 18.617188 -1.488281 18.921875 -1.4375 C 19.234375 -1.382812 19.566406 -1.359375 19.921875 -1.359375 L 20.046875 -1.359375 L 20.046875 0 L 14.375 0 L 14.375 -11.203125 C 14.375 -11.910156 14.3125 -12.539062 14.1875 -13.09375 C 14.0625 -13.644531 13.859375 -14.109375 13.578125 -14.484375 C 13.296875 -14.867188 12.925781 -15.15625 12.46875 -15.34375 C 12.019531 -15.539062 11.46875 -15.640625 10.8125 -15.640625 C 10.070312 -15.640625 9.453125 -15.5 8.953125 -15.21875 C 8.453125 -14.9375 8.046875 -14.550781 7.734375 -14.0625 C 7.429688 -13.570312 7.210938 -13.007812 7.078125 -12.375 C 6.941406 -11.75 6.875 -11.085938 6.875 -10.390625 L 6.875 -3.53125 C 6.875 -3.0625 6.945312 -2.679688 7.09375 -2.390625 C 7.238281 -2.097656 7.429688 -1.875 7.671875 -1.71875 C 7.910156 -1.570312 8.191406 -1.472656 8.515625 -1.421875 C 8.835938 -1.378906 9.179688 -1.359375 9.546875 -1.359375 Z M 9.640625 -1.359375 "/></g></g></g><g fill="#3d3d3d" fill-opacity="1"><g transform="translate(298.208422, 197.624987)"><g><path d="M 17.078125 -16.71875 C 17.078125 -16.488281 17.039062 -16.269531 16.96875 -16.0625 C 16.90625 -15.863281 16.800781 -15.6875 16.65625 -15.53125 C 16.519531 -15.375 16.34375 -15.25 16.125 -15.15625 C 15.914062 -15.070312 15.660156 -15.03125 15.359375 -15.03125 C 15.359375 -15.15625 15.34375 -15.28125 15.3125 -15.40625 C 15.28125 -15.53125 15.222656 -15.648438 15.140625 -15.765625 C 15.066406 -15.878906 14.960938 -15.96875 14.828125 -16.03125 C 14.691406 -16.101562 14.507812 -16.140625 14.28125 -16.140625 C 14.007812 -16.140625 13.757812 -16.109375 13.53125 -16.046875 C 13.3125 -15.984375 13.097656 -15.882812 12.890625 -15.75 C 13.253906 -15.289062 13.554688 -14.75 13.796875 -14.125 C 14.035156 -13.507812 14.15625 -12.738281 14.15625 -11.8125 C 14.15625 -11.007812 14.03125 -10.265625 13.78125 -9.578125 C 13.539062 -8.898438 13.179688 -8.3125 12.703125 -7.8125 C 12.222656 -7.320312 11.613281 -6.9375 10.875 -6.65625 C 10.144531 -6.375 9.289062 -6.234375 8.3125 -6.234375 C 8.1875 -6.234375 8.039062 -6.234375 7.875 -6.234375 C 7.71875 -6.242188 7.5625 -6.25 7.40625 -6.25 C 7.25 -6.257812 7.097656 -6.269531 6.953125 -6.28125 C 6.816406 -6.300781 6.707031 -6.316406 6.625 -6.328125 C 6.414062 -6.222656 6.210938 -6.101562 6.015625 -5.96875 C 5.828125 -5.84375 5.660156 -5.703125 5.515625 -5.546875 C 5.378906 -5.390625 5.269531 -5.207031 5.1875 -5 C 5.101562 -4.800781 5.0625 -4.582031 5.0625 -4.34375 C 5.0625 -4.082031 5.109375 -3.867188 5.203125 -3.703125 C 5.304688 -3.546875 5.445312 -3.421875 5.625 -3.328125 C 5.800781 -3.242188 6.015625 -3.1875 6.265625 -3.15625 C 6.515625 -3.132812 6.785156 -3.125 7.078125 -3.125 L 10.75 -3.125 C 11.71875 -3.125 12.539062 -3 13.21875 -2.75 C 13.894531 -2.507812 14.445312 -2.175781 14.875 -1.75 C 15.300781 -1.320312 15.613281 -0.804688 15.8125 -0.203125 C 16.007812 0.390625 16.109375 1.035156 16.109375 1.734375 C 16.109375 2.660156 15.9375 3.5 15.59375 4.25 C 15.25 5 14.722656 5.632812 14.015625 6.15625 C 13.304688 6.675781 12.410156 7.078125 11.328125 7.359375 C 10.242188 7.648438 8.96875 7.796875 7.5 7.796875 C 5.238281 7.796875 3.546875 7.378906 2.421875 6.546875 C 1.304688 5.710938 0.75 4.550781 0.75 3.0625 C 0.75 2.425781 0.859375 1.867188 1.078125 1.390625 C 1.296875 0.921875 1.59375 0.515625 1.96875 0.171875 C 2.34375 -0.160156 2.773438 -0.429688 3.265625 -0.640625 C 3.753906 -0.859375 4.265625 -1.015625 4.796875 -1.109375 C 4.578125 -1.203125 4.363281 -1.328125 4.15625 -1.484375 C 3.945312 -1.648438 3.753906 -1.84375 3.578125 -2.0625 C 3.410156 -2.28125 3.273438 -2.53125 3.171875 -2.8125 C 3.066406 -3.101562 3.015625 -3.421875 3.015625 -3.765625 C 3.015625 -4.410156 3.179688 -4.96875 3.515625 -5.4375 C 3.859375 -5.914062 4.398438 -6.375 5.140625 -6.8125 C 4.671875 -7.007812 4.253906 -7.269531 3.890625 -7.59375 C 3.523438 -7.925781 3.21875 -8.304688 2.96875 -8.734375 C 2.71875 -9.171875 2.523438 -9.640625 2.390625 -10.140625 C 2.265625 -10.648438 2.203125 -11.175781 2.203125 -11.71875 C 2.203125 -12.65625 2.328125 -13.492188 2.578125 -14.234375 C 2.835938 -14.972656 3.21875 -15.601562 3.71875 -16.125 C 4.226562 -16.644531 4.863281 -17.039062 5.625 -17.3125 C 6.382812 -17.582031 7.28125 -17.71875 8.3125 -17.71875 C 8.695312 -17.71875 9.078125 -17.6875 9.453125 -17.625 C 9.835938 -17.570312 10.191406 -17.492188 10.515625 -17.390625 C 10.835938 -17.296875 11.128906 -17.1875 11.390625 -17.0625 C 11.648438 -16.9375 11.859375 -16.800781 12.015625 -16.65625 C 12.171875 -16.832031 12.351562 -17.019531 12.5625 -17.21875 C 12.78125 -17.425781 13.019531 -17.617188 13.28125 -17.796875 C 13.550781 -17.972656 13.84375 -18.117188 14.15625 -18.234375 C 14.46875 -18.347656 14.800781 -18.40625 15.15625 -18.40625 C 15.476562 -18.40625 15.757812 -18.359375 16 -18.265625 C 16.238281 -18.179688 16.4375 -18.0625 16.59375 -17.90625 C 16.757812 -17.75 16.878906 -17.566406 16.953125 -17.359375 C 17.035156 -17.160156 17.078125 -16.945312 17.078125 -16.71875 Z M 3.375 2.859375 C 3.375 3.328125 3.4375 3.765625 3.5625 4.171875 C 3.6875 4.585938 3.90625 4.941406 4.21875 5.234375 C 4.539062 5.535156 4.972656 5.769531 5.515625 5.9375 C 6.054688 6.113281 6.738281 6.203125 7.5625 6.203125 C 8.726562 6.203125 9.6875 6.101562 10.4375 5.90625 C 11.195312 5.707031 11.796875 5.429688 12.234375 5.078125 C 12.679688 4.734375 12.992188 4.320312 13.171875 3.84375 C 13.347656 3.363281 13.4375 2.835938 13.4375 2.265625 C 13.4375 1.765625 13.363281 1.351562 13.21875 1.03125 C 13.082031 0.71875 12.875 0.46875 12.59375 0.28125 C 12.3125 0.09375 11.960938 -0.0351562 11.546875 -0.109375 C 11.140625 -0.179688 10.664062 -0.21875 10.125 -0.21875 L 6.9375 -0.21875 C 6.488281 -0.21875 6.050781 -0.175781 5.625 -0.09375 C 5.195312 -0.0195312 4.816406 0.125 4.484375 0.34375 C 4.148438 0.570312 3.878906 0.882812 3.671875 1.28125 C 3.472656 1.6875 3.375 2.210938 3.375 2.859375 Z M 5.265625 -11.8125 C 5.265625 -10.425781 5.492188 -9.410156 5.953125 -8.765625 C 6.410156 -8.117188 7.164062 -7.796875 8.21875 -7.796875 C 8.738281 -7.796875 9.179688 -7.875 9.546875 -8.03125 C 9.910156 -8.195312 10.207031 -8.441406 10.4375 -8.765625 C 10.675781 -9.097656 10.84375 -9.519531 10.9375 -10.03125 C 11.039062 -10.539062 11.09375 -11.148438 11.09375 -11.859375 C 11.09375 -13.316406 10.867188 -14.394531 10.421875 -15.09375 C 9.984375 -15.789062 9.238281 -16.140625 8.1875 -16.140625 C 7.132812 -16.140625 6.382812 -15.78125 5.9375 -15.0625 C 5.488281 -14.351562 5.265625 -13.269531 5.265625 -11.8125 Z M 5.265625 -11.8125 "/></g></g></g></svg>